<svg width="80" height="80" viewBox="0 0 80 80" fill="none" xmlns="http://www.w3.org/2000/svg">
  <path d="M29.0533 72.5033C26.8612 72.5122 24.7392 71.7316 23.0755 70.3041C21.4118 68.8767 20.3177 66.898 19.9933 64.73L14.1967 27.05C14.1418 26.6936 14.1648 26.3295 14.2639 25.9827C14.3631 25.636 14.5361 25.3148 14.771 25.0412C15.006 24.7676 15.2973 24.5481 15.6251 24.3977C15.9529 24.2473 16.3094 24.1697 16.67 24.17H17.67C17.3947 22.9726 17.3939 21.7284 17.6675 20.5306C17.9411 19.3328 18.4821 18.2125 19.25 17.2533C20.2017 16.1266 21.4301 15.2669 22.8146 14.7584C24.199 14.25 25.6919 14.1104 27.1467 14.3533C27.5297 13.0106 28.2554 11.7905 29.2523 10.8128C30.2493 9.8351 31.4833 9.13344 32.8333 8.77667C34.1988 8.42574 35.6293 8.41326 37.0007 8.74028C38.3722 9.06731 39.6431 9.72398 40.7033 10.6533C41.708 9.43492 43.031 8.51908 44.5252 8.0077C46.0193 7.49631 47.6261 7.40941 49.1667 7.75667C50.5865 8.08229 51.883 8.80894 52.9017 9.85017C53.9205 10.8914 54.6187 12.2034 54.9133 13.63C56.5285 13.7532 58.0734 14.3421 59.3608 15.3254C60.6481 16.3087 61.6228 17.6441 62.1667 19.17C62.7265 20.7792 62.8053 22.5167 62.3933 24.17H63.3367C63.6973 24.1697 64.0537 24.2473 64.3815 24.3977C64.7093 24.5481 65.0007 24.7676 65.2356 25.0412C65.4706 25.3148 65.6436 25.636 65.7427 25.9827C65.8419 26.3295 65.8648 26.6936 65.81 27.05L60.01 64.7167C59.6898 66.8882 58.5968 68.8714 56.9318 70.3018C55.2669 71.7323 53.1417 72.514 50.9467 72.5033H29.0533ZM50.9467 67.5033C51.9436 67.5086 52.909 67.1542 53.6657 66.5052C54.4225 65.8562 54.9199 64.9561 55.0667 63.97L60.42 29.17H50.8733L49.13 67.5033H50.9467ZM44.1267 67.5033L45.8667 29.17H34.13L35.8733 67.5033H44.1267ZM24.9333 63.97C25.0807 64.9558 25.5783 65.8555 26.3349 66.5044C27.0915 67.1532 28.0566 67.5079 29.0533 67.5033H30.8667L29.1267 29.17H19.5833L24.9333 63.97ZM57.1833 24.17C57.6471 23.1697 57.7587 22.0418 57.5 20.97C56.81 19.17 55.48 18.4167 52.9067 18.5533C52.5774 18.5708 52.248 18.523 51.9374 18.4127C51.6267 18.3024 51.3409 18.1317 51.0965 17.9105C50.852 17.6893 50.6538 17.422 50.5131 17.1238C50.3724 16.8257 50.292 16.5026 50.2767 16.1733C50.1733 13.97 49.47 12.9867 47.96 12.6C46.45 12.2133 44.8767 13.0867 42.96 15.7633C42.7401 16.069 42.4541 16.3212 42.1233 16.501C41.7924 16.6809 41.4253 16.7837 41.0491 16.802C40.673 16.8203 40.2976 16.7534 39.9509 16.6065C39.6042 16.4596 39.2951 16.2363 39.0467 15.9533C37.2133 13.86 35.66 13.21 34.1467 13.62C32.6867 14.01 31.8333 15.1767 31.52 17.66C31.4726 18.0241 31.3458 18.3734 31.1484 18.683C30.951 18.9926 30.6879 19.255 30.3777 19.4516C30.0676 19.6482 29.718 19.7741 29.3537 19.8205C28.9895 19.8669 28.6195 19.8326 28.27 19.72C25.72 18.8933 24.1667 19.2033 23.0367 20.5033C22.706 21.0499 22.5087 21.6666 22.4606 22.3036C22.4126 22.9406 22.5151 23.58 22.76 24.17H57.1833Z" fill="white"/>
</svg>
