<svg width="60" height="60" viewBox="0 0 60 60" fill="none" xmlns="http://www.w3.org/2000/svg">
  <path d="M56.7792 2.2888L51.1194 10.4681L56.7425 18.5944H50.3832L44.7619 10.4681L50.5993 2.03064H42.5573L36.7199 10.4681L42.3413 18.5944H35.9838L30.3625 10.4681L36.198 2.03064H28.1543L22.3168 10.4681L27.94 18.5944H21.5807L15.9593 10.4681L21.7968 2.03064H13.7548L7.9173 10.4681L13.5387 18.5944H7.18125L1.56012 10.4681L7.39758 2.03064H4.6875C2.09836 2.03064 0 4.129 0 6.71814V53.2819C0 55.871 2.09836 57.9694 4.6875 57.9694H55.3125C57.9016 57.9694 60 55.871 60 53.2819V6.71814C60 4.64357 58.6451 2.90591 56.7792 2.2888ZM56.25 53.2819C56.25 53.8001 55.8288 54.2194 55.3125 54.2194H4.6875C4.17117 54.2194 3.75 53.8001 3.75 53.2819V22.3444H56.25V53.2819Z" fill="white"/>
  <path d="M25.2759 46.073C25.3638 46.1243 25.4719 46.1206 25.5579 46.0694L37.4817 38.9539C37.566 38.9025 37.6172 38.811 37.6172 38.7121C37.6172 38.6168 37.5659 38.5235 37.4817 38.4741L25.5579 31.3568C25.4719 31.3074 25.3638 31.3037 25.2759 31.3532C25.1917 31.4026 25.1367 31.4978 25.1367 31.5967V38.7122V45.8295C25.1367 45.932 25.1917 46.0254 25.2759 46.073Z" fill="white"/>
</svg>
